<svg xmlns="http://www.w3.org/2000/svg" width="1024" height="1024" viewBox="0 0 1024 1024" version="1.1"><path d="M 439.187 170.274 C 437.810 171.934, 436.783 180.252, 438.052 179.468 C 438.574 179.146, 439 178.264, 439 177.508 C 439 176.220, 442.597 174.365, 444.250 174.802 C 444.663 174.911, 445 173.923, 445 172.607 C 445 169.320, 441.234 167.808, 439.187 170.274 M 424.608 177.579 C 422.928 181.958, 427.667 187.111, 433.200 186.921 C 434.465 186.878, 434.938 186.615, 434.250 186.338 C 433.563 186.060, 433 184.987, 433 183.952 C 433 182.917, 432.130 181.605, 431.068 181.036 C 430.005 180.467, 428.850 179.102, 428.500 178.001 C 427.742 175.612, 425.458 175.364, 424.608 177.579 M 588.726 186.916 C 587.026 188.638, 587.239 192, 589.048 192 C 590.504 192, 591.064 190.190, 589.756 189.710 C 588.756 189.344, 588.763 188.971, 589.792 187.883 C 590.884 186.728, 591.214 186.728, 591.930 187.886 C 592.395 188.640, 593.277 188.947, 593.888 188.569 C 594.508 188.186, 595 188.521, 595 189.324 C 595 190.118, 595.900 191.002, 597 191.290 C 599.328 191.899, 599.735 190.219, 597.470 189.350 C 596.505 188.980, 596.161 188.069, 596.538 186.882 C 597.193 184.816, 595.475 184.237, 594.662 186.250 C 594.259 187.250, 594.142 187.250, 594.079 186.250 C 593.964 184.433, 590.787 184.828, 588.726 186.916 M 598.943 193.944 C 600.111 194.683, 600.163 195.346, 599.215 197.428 C 598.511 198.974, 598.433 200, 599.021 200 C 599.560 200, 600 199.325, 600 198.500 C 600 197.675, 600.408 197, 600.906 197 C 601.405 197, 601.577 196.100, 601.290 195 C 601.002 193.900, 600.032 193.007, 599.133 193.015 C 597.760 193.028, 597.730 193.176, 598.943 193.944 M 235 283.149 C 235 283.846, 233.334 286.122, 231.297 288.208 C 227.600 291.994, 227.598 292, 230.175 292 C 231.594 292, 233.279 291.369, 233.920 290.597 C 235.683 288.472, 237.002 283.119, 235.926 282.454 C 235.417 282.140, 235 282.452, 235 283.149 M 315.500 317.458 C 298.338 320.160, 274.697 328.110, 256.203 337.398 C 251.097 339.962, 247.186 342.492, 247.512 343.019 C 247.855 343.575, 247.348 343.701, 246.302 343.319 C 244.590 342.694, 244.592 342.766, 246.340 344.759 C 247.582 346.175, 247.954 347.571, 247.483 349.054 C 246.966 350.683, 247.113 351.048, 248.050 350.469 C 248.978 349.896, 249.159 350.284, 248.730 351.923 C 248.285 353.627, 248.501 354.022, 249.638 353.585 C 250.760 353.155, 250.974 353.508, 250.498 355.006 C 250.042 356.444, 250.322 357, 251.504 357 C 252.868 357, 252.921 357.230, 251.821 358.367 C 251.095 359.119, 248.079 362.293, 245.119 365.420 C 242.160 368.547, 237.279 372.679, 234.272 374.603 C 231.265 376.526, 227.616 379.202, 226.163 380.550 C 222.961 383.518, 222.371 383.568, 220.768 381 C 220.081 379.900, 219.052 379, 218.482 379 C 217.308 379, 214 375.415, 214 374.144 C 214 373.685, 213.072 372.470, 211.938 371.444 C 210.805 370.418, 210.079 368.807, 210.325 367.864 C 210.645 366.640, 210.330 366.320, 209.223 366.745 C 208.203 367.136, 207.919 366.939, 208.395 366.170 C 209.895 363.743, 206.959 365.179, 199.355 370.590 C 180.544 383.978, 171.625 396.268, 169.534 411.684 C 167.205 428.853, 181.412 451.332, 196.316 454.058 C 200.528 454.828, 205 453.796, 205 452.054 C 205 451.506, 203.601 449.073, 201.890 446.646 C 199.081 442.661, 198.846 441.764, 199.463 437.367 C 203.213 410.624, 258.284 358.305, 309.809 332.535 C 326.872 324, 341.340 320.581, 349 323.271 C 353.544 324.867, 353.868 327.354, 350.415 334.167 C 344.064 346.701, 334.515 358.976, 313.982 381 C 308.598 386.775, 303.812 391.935, 303.347 392.467 C 302.363 393.590, 305.379 391.396, 308.797 388.501 C 310.095 387.402, 313.035 385.739, 315.329 384.807 C 317.623 383.875, 318.862 383.087, 318.083 383.056 C 317.304 383.025, 316.956 382.711, 317.309 382.357 C 317.663 382.004, 318.560 382.220, 319.304 382.838 C 320.048 383.455, 321.542 384.095, 322.623 384.260 C 326.883 384.910, 331.557 388.650, 332.679 392.305 C 333.682 395.573, 333.521 396.362, 331.070 400.218 C 328.243 404.662, 315.395 417.208, 308.600 422.159 C 304.033 425.486, 301.441 425.691, 298 423 C 296.625 421.924, 294.986 421.034, 294.357 421.022 C 293.035 420.997, 292.125 419.174, 290.493 413.281 C 289.382 409.268, 289.473 408.877, 292.354 405.281 C 295.438 401.430, 286.885 409.307, 270.399 425.500 C 265.359 430.450, 259.720 435.881, 257.868 437.569 C 238.297 455.402, 183.267 516.114, 168.276 536.410 C 158.092 550.198, 155.886 554.168, 155.822 558.826 C 155.689 568.445, 160.288 574.327, 169.444 576.248 C 175.135 577.441, 175.482 577.381, 187.374 573.163 C 216.516 562.825, 223.446 560.587, 239.500 556.328 C 257.216 551.628, 315.143 538.809, 315.781 539.448 C 316.228 539.895, 304.307 555.239, 293.988 567.500 C 289.822 572.450, 281.083 583.025, 274.568 591 C 268.053 598.975, 262.023 606.307, 261.167 607.293 C 259.750 608.928, 259.762 609.029, 261.306 608.436 C 262.238 608.079, 263 607.384, 263 606.893 C 263 606.402, 263.825 606, 264.833 606 C 265.842 606, 266.998 605.669, 267.402 605.264 C 268.710 603.957, 274.424 604.169, 277.250 605.630 C 280.793 607.461, 280.732 609.815, 277 615.345 C 275.350 617.790, 274 620.105, 274 620.490 C 274 622.297, 262.329 633.066, 259.280 634.072 C 256.204 635.088, 255.587 634.961, 253.343 632.853 C 251.349 630.980, 250.911 629.735, 251.195 626.750 C 251.392 624.688, 251.152 623, 250.661 623 C 250.171 623, 250.562 621.763, 251.529 620.250 L 253.288 617.500 250.719 619.854 C 246.930 623.326, 217.910 659.162, 210.615 669.378 C 198.256 686.686, 195.465 696.104, 200.036 705.079 C 203.296 711.477, 206.379 715.220, 211.227 718.661 C 214.843 721.228, 216.539 721.729, 222.258 721.917 C 233.849 722.297, 252.049 717.446, 267.655 709.817 C 268.840 709.238, 270.329 709.086, 270.965 709.478 C 272.309 710.309, 278 708.187, 278 706.856 C 278 706.360, 276.889 706.682, 275.532 707.571 C 274.175 708.460, 272.487 708.974, 271.782 708.713 C 270.252 708.147, 275.701 705.694, 278.250 705.802 C 279.212 705.842, 280.004 705.341, 280.008 704.688 C 280.013 704.035, 281.841 702.509, 284.071 701.299 C 287.276 699.559, 288.666 699.303, 290.702 700.077 C 292.118 700.615, 293.515 700.818, 293.805 700.528 C 294.096 700.238, 294.016 700, 293.627 700 C 293.239 700, 293.501 699.372, 294.211 698.605 C 294.920 697.838, 295.837 697.414, 296.248 697.663 C 297.395 698.357, 301.089 695.433, 300.244 694.500 C 299.835 694.049, 300.010 693.971, 300.633 694.326 C 301.256 694.682, 304.856 693.360, 308.633 691.387 C 312.410 689.415, 316.241 687.655, 317.148 687.477 C 318.754 687.162, 327.002 682.308, 328 681.091 C 328.275 680.755, 330.243 679.585, 332.373 678.490 C 334.503 677.396, 337.586 675.264, 339.225 673.754 C 340.863 672.243, 342.568 671.233, 343.014 671.509 C 343.460 671.784, 343.706 670.922, 343.560 669.593 C 343.391 668.055, 343.728 667.342, 344.487 667.633 C 345.143 667.885, 346.257 667.396, 346.962 666.546 C 347.997 665.299, 348 664.705, 346.981 663.477 C 345.924 662.204, 345.986 662.057, 347.359 662.584 C 348.261 662.931, 349 662.989, 349 662.714 C 349 661.242, 345.712 661.282, 344.184 662.773 C 343.210 663.723, 340.183 666.196, 337.457 668.268 C 328.362 675.183, 326.974 676.489, 327.437 677.698 C 327.705 678.395, 327.323 678.677, 326.527 678.372 C 324.814 677.715, 321.127 679.577, 318.500 682.426 C 317.400 683.618, 316.893 684.011, 317.372 683.297 C 318.571 681.515, 317.589 681.671, 314.048 683.824 C 312.031 685.051, 311.379 685.979, 312.058 686.658 C 312.736 687.336, 312.579 687.667, 311.577 687.667 C 310.758 687.667, 310.320 687.292, 310.603 686.833 C 311.299 685.707, 310.271 685.785, 307.934 687.035 C 304.029 689.125, 306.192 687.185, 313.750 681.819 C 318.012 678.792, 328.700 671.200, 337.500 664.948 C 346.300 658.696, 354.254 653.579, 355.177 653.576 C 356.099 653.573, 356.652 653.246, 356.406 652.847 C 356.160 652.449, 358.105 650.521, 360.729 648.562 C 363.353 646.603, 366.400 644.286, 367.500 643.412 C 369.251 642.022, 386.801 629.165, 390.547 626.528 C 391.568 625.809, 392.785 626.514, 395.214 629.232 C 397.021 631.254, 402.769 636.101, 407.987 640.002 C 413.205 643.903, 417.840 647.749, 418.287 648.548 C 418.734 649.346, 419.644 650, 420.309 650 C 420.975 650, 422.108 650.944, 422.829 652.097 C 423.549 653.251, 424.380 653.953, 424.676 653.658 C 424.971 653.362, 426.170 654.012, 427.340 655.103 C 430.513 658.059, 446.271 667.223, 456.500 672.061 C 468.216 677.602, 469.310 678.075, 471.043 678.336 C 471.844 678.457, 472.950 678.837, 473.500 679.180 C 475.858 680.652, 487.262 682.188, 491.316 681.580 C 497.983 680.580, 500.288 677.554, 500.713 669.240 C 501.497 653.934, 501.995 655.576, 492 640.543 C 487.483 633.750, 485.616 633.591, 487.918 640.194 C 490.588 647.855, 488.671 650, 479.154 650 C 462.161 650, 432.096 639.878, 418.492 629.576 C 411.982 624.646, 407 620.145, 407 619.192 C 407 618.774, 409.517 615.972, 412.592 612.966 C 427.191 598.698, 439.914 579.528, 446.992 561.138 C 451.142 550.354, 451.323 550.086, 459.352 542.925 C 463.833 538.928, 471.699 531.347, 476.830 526.079 L 486.161 516.500 484.077 521.796 C 477.879 537.547, 474.358 572.611, 477.485 587.441 C 480.426 601.387, 483.266 605.366, 494.199 610.862 C 498.539 613.043, 499.288 613.130, 503.998 612 C 509.492 610.683, 518.766 604.387, 525.340 597.515 C 541.096 581.041, 558.221 546.903, 563.465 521.515 C 564.912 514.510, 565.628 513.036, 569.698 508.685 L 574.296 503.769 573.616 507.135 C 571.629 516.971, 570 527.687, 570 530.921 C 570 541.030, 576.724 554.919, 583.188 558.162 C 588.544 560.849, 592.592 561.872, 594.106 560.921 C 594.873 560.439, 596.259 560.282, 597.187 560.570 C 599.302 561.228, 602.953 559.041, 602.353 557.477 C 602.107 556.836, 604.253 552.529, 607.122 547.905 C 609.992 543.282, 622.181 519.960, 634.209 496.078 C 656.769 451.285, 656.998 450.955, 653.328 468.500 C 649.914 484.820, 640.835 537.119, 637.444 560 C 636.507 566.325, 635.305 572.048, 634.774 572.718 C 634.243 573.387, 630.139 576.039, 625.654 578.611 C 598.987 593.900, 577.332 611.725, 567.141 626.775 C 554.731 645.101, 554.362 664.867, 566.230 675.589 C 568.425 677.572, 571.692 679.809, 573.490 680.560 C 575.373 681.347, 578.939 684.699, 581.897 688.463 C 584.722 692.058, 587.701 695, 588.517 695 C 589.333 695, 590 695.367, 590 695.816 C 590 696.265, 595.063 696.500, 601.250 696.339 C 608.722 696.144, 611.996 696.369, 611 697.008 C 609.706 697.837, 609.730 697.971, 611.179 697.985 C 612.102 697.993, 613.532 697.325, 614.357 696.500 C 615.182 695.675, 616.324 695, 616.895 695 C 619.005 695, 624.818 691.675, 624.577 690.606 C 624.440 689.998, 624.517 689.837, 624.747 690.250 C 625.436 691.482, 626.346 691.130, 629.500 688.412 C 631.150 686.991, 633.175 685.424, 634 684.932 C 635.201 684.215, 635.241 683.866, 634.203 683.180 C 633.166 682.496, 633.221 682.062, 634.476 681.020 C 635.807 679.915, 635.950 679.966, 635.416 681.359 C 634.518 683.698, 636.224 683.388, 638.431 680.809 C 645.753 672.258, 656.216 656, 654.397 656 C 654.008 656, 654.479 655.128, 655.443 654.063 C 656.407 652.998, 656.900 651.648, 656.539 651.063 C 656.178 650.478, 656.304 650, 656.819 650 C 657.885 650, 661.577 640.261, 662.504 635 C 662.962 632.406, 662.851 631.888, 662.076 633 C 661.501 633.825, 661.023 635.400, 661.014 636.500 C 660.995 638.957, 657.112 649.134, 657.047 646.899 C 657.021 646.019, 657.491 643.891, 658.090 642.170 C 659.428 638.333, 658.651 635.426, 657.243 639 C 656.473 640.956, 656.249 639.674, 656.216 633.113 C 656.189 627.696, 655.748 624.462, 654.971 623.982 C 654.239 623.530, 653.918 621.655, 654.152 619.203 C 654.364 616.984, 654.238 615.353, 653.873 615.578 C 653.136 616.034, 651.961 613.486, 652.070 611.668 C 652.109 611.026, 652.551 611.400, 653.053 612.500 C 653.836 614.217, 653.953 614.075, 653.877 611.500 C 653.828 609.850, 653.889 607.150, 654.012 605.500 L 654.237 602.500 655 605.500 L 655.763 608.500 655.782 605.500 C 655.792 603.850, 655.502 601.437, 655.138 600.138 C 654.564 598.094, 654.304 598.416, 653.205 602.522 C 652.507 605.133, 651.757 607.090, 651.538 606.872 C 650.947 606.280, 652.928 596.775, 654.074 594.709 C 654.621 593.724, 654.824 592.525, 654.527 592.043 C 653.999 591.189, 655.545 581.997, 656.720 579 C 657.044 578.175, 657.458 575.803, 657.640 573.728 C 657.822 571.654, 658.623 568.729, 659.420 567.228 C 661.643 563.043, 665.977 558.874, 667.311 559.639 C 667.965 560.014, 668.175 559.961, 667.778 559.522 C 666.856 558.501, 669.646 555.189, 683.381 541 C 701.322 522.466, 717.118 503.011, 732.754 480.188 C 736.640 474.516, 740.152 469.791, 740.558 469.688 C 740.965 469.585, 741.223 473.325, 741.133 478 C 740.824 494.033, 746.384 512.673, 754.095 521.456 C 762.635 531.182, 777.642 532.793, 786.025 524.883 C 790.281 520.866, 799.726 505.851, 803.917 496.437 L 807.892 487.510 808.229 502.005 C 808.503 513.794, 809.052 518.274, 811.169 526 C 815.992 543.599, 821.377 551.614, 832.768 558.147 C 836.133 560.076, 838.843 562.580, 840.268 565.076 C 842.702 569.338, 845.365 570.116, 847.714 567.250 C 848.503 566.288, 848.863 566.063, 848.515 566.750 C 848.086 567.597, 848.787 568.023, 850.691 568.070 C 853.113 568.131, 853.224 568.250, 851.500 568.932 C 850.400 569.367, 848.938 569.512, 848.250 569.255 C 847.563 568.997, 847 569.270, 847 569.862 C 847 570.469, 846.239 570.652, 845.250 570.281 C 843.743 569.717, 843.683 569.851, 844.818 571.247 C 846.044 572.756, 853.309 577, 854.666 577 C 855.644 577, 850.665 573.401, 848.687 572.677 C 847.689 572.313, 847.154 571.560, 847.497 571.004 C 847.906 570.344, 848.746 570.329, 849.929 570.962 C 850.924 571.494, 852.058 571.609, 852.450 571.216 C 852.843 570.824, 853.802 571.376, 854.582 572.443 C 855.362 573.509, 856 573.846, 856 573.191 C 856 572.536, 856.450 572, 857 572 C 857.550 572, 858 572.900, 858 574 C 858 575.580, 858.667 576, 861.171 576 C 862.915 576, 865.185 575.238, 866.214 574.306 C 867.973 572.714, 868.047 572.714, 867.436 574.306 C 866.629 576.408, 867.065 576.414, 871.379 574.356 C 873.743 573.229, 874.667 572.207, 874.319 571.106 C 873.896 569.769, 873.982 569.740, 874.829 570.936 C 875.967 572.540, 875.546 572.774, 884.251 565.683 C 886.864 563.554, 888.707 561.335, 888.346 560.752 C 887.986 560.168, 888.137 559.967, 888.683 560.304 C 890.162 561.218, 897.391 553.441, 896.460 551.936 C 895.967 551.137, 896.100 550.944, 896.833 551.397 C 898.894 552.671, 911.716 530.968, 910.277 528.640 C 909.955 528.118, 910.160 527.981, 910.733 528.335 C 911.868 529.036, 915.833 519.185, 918.594 508.805 C 923.366 490.867, 920.078 478.876, 908.234 471.032 C 903.850 468.128, 899.762 466.740, 903.117 469.295 C 904.479 470.332, 904.518 470.726, 903.367 471.802 C 902.248 472.847, 902 472.782, 902 471.439 C 902 469.541, 895.786 463, 893.983 463 C 893.176 463, 893.008 463.756, 893.485 465.250 C 893.880 466.488, 894.560 469.975, 894.996 473 C 896.527 483.623, 890.596 505.247, 881.145 523.500 C 876.622 532.235, 864.329 548.706, 858.802 553.438 C 854.093 557.468, 851.726 557.871, 849.312 555.051 C 848.394 553.979, 847.204 553.374, 846.667 553.706 C 846.112 554.049, 846.012 553.790, 846.435 553.106 C 847.008 552.179, 847.544 552.201, 848.776 553.201 C 850.131 554.302, 850.282 554.253, 849.767 552.877 C 849.433 551.984, 848.838 546.022, 848.444 539.627 C 848.050 533.232, 847.339 528, 846.864 528 C 846.389 528, 846 524.400, 846 520 C 846 515.333, 845.583 512, 845 512 C 844.450 512, 844 511.148, 844 510.107 C 844 507.768, 841.226 506.568, 839.373 508.105 C 838.266 509.024, 837.972 508.688, 837.855 506.372 C 837.776 504.793, 837.347 508.884, 836.904 515.465 C 836.460 522.046, 836.235 527.569, 836.405 527.738 C 836.575 527.908, 837.493 527.748, 838.446 527.382 C 839.753 526.881, 840.011 526.076, 839.494 524.109 C 839.117 522.674, 838.584 519.362, 838.308 516.750 L 837.807 512 840.903 512 L 844 512 844 519.869 L 844 527.738 840.344 528.332 C 838.333 528.658, 836.302 528.686, 835.830 528.395 C 835.359 528.104, 835.243 523.058, 835.573 517.183 C 835.903 511.307, 835.741 504.700, 835.212 502.500 C 834.457 499.357, 834.348 500.535, 834.705 508 C 834.956 513.239, 834.784 516.976, 834.321 516.332 C 833.860 515.690, 833.613 510.965, 833.771 505.832 C 833.929 500.699, 834.086 494.925, 834.120 493 C 834.174 489.887, 834.260 489.777, 834.902 492 L 835.623 494.500 836.911 492.129 C 837.620 490.825, 837.753 490.035, 837.206 490.372 C 835.431 491.470, 834.835 485.755, 836.026 479.051 C 838.313 466.175, 840.289 458.474, 841.731 456.813 C 842.537 455.885, 842.912 454.666, 842.564 454.104 C 841.771 452.821, 845.129 439.961, 846.100 440.562 C 846.492 440.804, 846.560 440.032, 846.249 438.845 C 845.865 437.377, 846.051 436.914, 846.831 437.396 C 847.532 437.829, 847.780 437.589, 847.468 436.778 C 847.189 436.049, 847.661 433.213, 848.519 430.476 C 855.869 407.025, 858 398.980, 858 394.682 C 858 390.962, 857.673 389.912, 856.638 390.309 C 855.889 390.596, 853.302 389.521, 850.888 387.919 C 845.437 384.302, 840.951 383.398, 835.920 384.906 C 831.540 386.218, 829.841 388.537, 830.656 392.088 C 831.207 394.487, 831.198 394.486, 828.855 391.773 C 825.715 388.136, 816.770 384.210, 809.991 383.494 C 798.987 382.331, 782.381 390.423, 771.365 402.317 C 761.194 413.297, 753.339 426.743, 747.119 443.820 C 744.085 452.150, 738.081 462.937, 728.652 477 C 714.542 498.044, 681 539.224, 681 535.503 C 681 535.038, 681.563 533.925, 682.250 533.030 C 682.938 532.134, 682.481 532.469, 681.236 533.773 C 679.990 535.078, 679.257 536.607, 679.606 537.172 C 680.008 537.821, 679.487 537.796, 678.193 537.103 C 677.067 536.500, 675.432 536.281, 674.561 536.615 C 673.405 537.059, 673.144 536.788, 673.596 535.611 C 673.936 534.725, 673.746 534, 673.173 534 C 672.601 534, 671.937 532.987, 671.698 531.750 C 671.458 530.513, 671.402 530.973, 671.572 532.772 C 671.755 534.711, 671.485 535.799, 670.908 535.443 C 670.372 535.112, 669.998 532.289, 670.076 529.171 C 670.216 523.562, 668.355 512.877, 668.115 517.917 C 668.052 519.246, 667.774 520.107, 667.497 519.830 C 666.624 518.957, 668.222 510.019, 669.149 510.592 C 669.635 510.892, 669.820 511.482, 669.560 511.902 C 669.301 512.323, 669.736 512.667, 670.528 512.667 C 671.412 512.667, 671.644 512.248, 671.129 511.583 C 669.744 509.797, 669.113 506, 670.201 506 C 670.758 506, 670.993 505.425, 670.724 504.722 C 670.097 503.089, 671.825 491.931, 672.920 490.547 C 673.375 489.971, 673.998 486.531, 674.303 482.902 C 674.609 479.273, 675.344 473.648, 675.937 470.402 C 676.529 467.156, 678.164 458.200, 679.568 450.500 C 680.973 442.800, 683.670 430.482, 685.561 423.127 C 687.452 415.772, 689 408.718, 689 407.450 C 689 404.053, 684.545 401, 679.588 401 C 674.559 401, 671.703 402.843, 669.969 407.210 C 656.683 440.654, 634.279 488.451, 618.035 518 C 614.559 524.325, 610.362 531.975, 608.709 535 C 600.659 549.735, 596.501 553.935, 593.220 550.643 C 588.915 546.322, 594.021 517.261, 606.686 474 C 613.187 451.792, 613.261 451.402, 611.601 448.222 C 610.818 446.725, 608.797 444.186, 607.108 442.580 C 604.360 439.968, 603.324 439.652, 597.268 439.580 L 590.500 439.500 590.425 445.500 C 590.331 453.020, 587.547 462.722, 584.542 466 C 583.282 467.375, 581.254 471.650, 580.036 475.500 C 577.357 483.966, 571.928 495.580, 569.051 499 L 566.949 501.500 567.709 498.500 C 568.128 496.850, 568.460 487.175, 568.448 477 C 568.424 457.435, 567.186 449.205, 563.044 441.086 C 560.358 435.822, 553.779 430.413, 547.609 428.399 C 544.799 427.481, 542.342 426.596, 542.150 426.431 C 541.957 426.267, 543.209 424.378, 544.932 422.235 C 558.018 405.950, 551.759 382.510, 533.409 379.082 C 521.607 376.877, 506.683 382.183, 496.726 392.123 C 490.006 398.832, 487.053 404.628, 487.022 411.167 C 486.955 425.423, 500.152 436.115, 518.134 436.375 C 525.039 436.475, 526.423 436.146, 532.634 432.930 C 538.564 429.859, 539.985 429.492, 543.060 430.241 C 546.929 431.184, 555.523 438.344, 554.593 439.850 C 554.277 440.361, 552.777 441.085, 551.259 441.459 C 546.313 442.679, 532.135 450.987, 524.454 457.166 C 516.818 463.309, 511.367 469.169, 506.311 476.671 C 502.164 482.824, 498.878 484.940, 489.207 487.681 C 479.635 490.395, 461.754 491.728, 454.091 490.298 C 449.882 489.513, 449.602 489.240, 447.914 484.272 C 440.618 462.808, 426.551 449.248, 410.511 448.219 C 402.170 447.684, 397.838 449.407, 391.799 455.665 C 385.494 462.199, 383.500 467.926, 383.500 479.500 C 383.500 488.385, 383.807 490.124, 386.250 495.100 C 387.762 498.179, 389 501.029, 389 501.431 C 389 501.834, 387.476 504.039, 385.614 506.332 C 380.464 512.672, 374.080 526.279, 371.255 536.936 C 367.750 550.156, 367.550 573.003, 370.822 586.301 C 373.512 597.239, 378.270 607.566, 384.451 615.885 L 389.194 622.270 386.347 624.638 C 368.315 639.636, 332.271 664.243, 307.093 678.744 C 287.339 690.121, 260.525 703.200, 249.154 707.005 C 239.010 710.400, 225.359 713.340, 223.906 712.442 C 222.106 711.330, 223.063 705.369, 226.060 699.036 C 228.477 693.925, 229.334 692.879, 230.153 694.036 C 230.982 695.208, 231.066 695.124, 230.575 693.618 C 229.877 691.478, 232.360 688.004, 250 666.446 C 256.325 658.717, 262.935 650.616, 264.689 648.446 C 272.995 638.171, 285.021 623.869, 286.086 623 C 286.948 622.298, 292.401 615.175, 309.821 592 C 315.402 584.575, 322.673 575.125, 325.978 571 C 329.284 566.875, 334.069 560.482, 336.612 556.793 C 344.040 546.019, 343.785 538.166, 335.802 531.843 C 332.048 528.870, 331.544 528.748, 325.180 529.285 C 316.528 530.016, 240.823 549.120, 213.500 557.468 C 194.656 563.226, 179.019 567.352, 178.398 566.731 C 177.616 565.949, 183.314 557.472, 191.325 547.500 C 203.429 532.434, 241.518 495.170, 267.041 473.425 C 331.170 418.786, 354.331 394.924, 365.078 372.420 C 369.951 362.217, 372.006 354.359, 371.978 346.040 C 371.949 337.363, 369.782 332.939, 361.860 325.381 C 356.038 319.826, 354.784 319.111, 348.275 317.631 C 339.922 315.731, 326.903 315.662, 315.500 317.458 M 528.438 384.918 C 518.533 387.352, 507.623 397.046, 504.054 406.586 C 500.259 416.727, 502.045 425.118, 509 429.833 C 512.135 431.958, 513.292 432.153, 520.096 431.708 C 528.328 431.169, 531.968 429.723, 537.643 424.740 C 548.917 414.842, 550.178 393.589, 539.868 387.232 C 535.637 384.624, 532.347 383.958, 528.438 384.918 M 809.206 396.568 C 807.974 397.431, 807.269 398.626, 807.638 399.223 C 808.020 399.841, 807.848 400.024, 807.239 399.647 C 804.187 397.761, 788.046 419.503, 780.251 436 C 775.004 447.105, 770.913 459.781, 768.425 472.642 C 766.918 480.434, 766.413 499.514, 767.575 504.767 C 769.104 511.679, 770.125 513.805, 771.796 513.559 C 772.733 513.422, 773.500 512.827, 773.500 512.238 C 773.500 511.649, 773.837 510.829, 774.250 510.417 C 775.413 509.254, 775.134 511.880, 773.836 514.316 C 772.814 516.235, 772.860 516.345, 774.219 515.224 C 775.488 514.179, 775.868 514.214, 776.332 515.422 C 776.643 516.232, 778.284 517.613, 779.979 518.489 C 782.643 519.867, 783.253 519.890, 784.483 518.660 C 785.265 517.878, 785.589 516.887, 785.202 516.459 C 784.816 516.030, 785.047 515.994, 785.716 516.378 C 788.319 517.872, 798.539 499.887, 805.818 481 C 808.044 475.225, 813.291 458.350, 817.478 443.500 C 821.665 428.650, 825.978 413.840, 827.063 410.588 L 829.036 404.676 826.806 401.422 C 822.821 395.606, 814.038 393.184, 809.206 396.568 M 755.880 439.733 C 751.402 440.738, 749.255 453.869, 752.157 462.500 C 754.223 468.644, 756.963 468.403, 760.314 461.781 C 763.433 455.616, 763.857 448.609, 761.423 443.478 C 759.758 439.969, 758.528 439.138, 755.880 439.733 M 551.273 453.481 C 547.313 455.203, 537.390 464.878, 533.211 471.091 C 525.019 483.270, 520.705 497.772, 522.902 505.741 C 524.404 511.185, 528.379 515.302, 531.336 514.475 C 532.754 514.078, 533.061 514.176, 532.225 514.759 C 531.318 515.392, 531.946 515.955, 534.403 516.709 C 538.491 517.964, 544.511 517.018, 551.102 514.085 L 555.705 512.037 557.102 502.769 C 558.626 492.665, 558.987 464.350, 557.689 456.750 C 556.815 451.636, 556.218 451.332, 551.273 453.481 M 397.731 457.665 C 389.293 463.669, 385.441 480.181, 390.005 490.790 C 392.612 496.849, 394.390 497.378, 395.978 492.566 C 396.602 490.677, 398.951 487.471, 401.198 485.440 C 405.148 481.872, 405.481 481.766, 411.150 482.280 C 414.495 482.583, 418.576 483.732, 420.646 484.954 L 424.276 487.095 423.761 483.253 C 422.552 474.242, 414.003 458.234, 409.241 456.064 C 405.417 454.322, 401.704 454.838, 397.731 457.665 M 408.418 485.958 C 401.867 488.643, 398.297 499.022, 399.396 512.193 C 400.364 523.799, 402.566 529.417, 408.777 536.126 C 414.842 542.677, 424.594 548.274, 425.995 546.009 C 427.612 543.392, 428.336 515.836, 427.098 504 C 425.998 493.475, 425.667 492.304, 423.198 490.185 C 418.747 486.365, 412.077 484.458, 408.418 485.958 M 495 490.939 C 489.997 493.868, 470.349 497.196, 458.896 497.053 L 451.292 496.959 452.216 502.229 C 452.723 505.128, 453.220 514.812, 453.320 523.750 C 453.419 532.687, 453.756 540, 454.070 540 C 454.953 540, 473.794 522.952, 480.469 516.115 C 483.751 512.752, 486.944 510, 487.564 510 C 489.007 510, 492 506.714, 492 505.130 C 492 504.462, 493.350 501.029, 495 497.500 C 496.650 493.971, 498 490.840, 498 490.542 C 498 489.759, 496.728 489.927, 495 490.939 M 123.250 495.031 C 122.013 495.529, 121 496.161, 121 496.436 C 121 496.712, 121.681 496.676, 122.513 496.357 C 123.345 496.037, 124.695 496.332, 125.513 497.011 C 126.750 498.037, 127 497.888, 127 496.122 C 127 493.801, 126.600 493.684, 123.250 495.031 M 848.624 511.539 C 848.281 512.432, 848.066 515.264, 848.147 517.832 C 848.291 522.400, 848.309 522.372, 848.974 516.500 C 849.701 510.092, 849.620 508.943, 848.624 511.539 M 494.973 519.250 C 492.808 524.019, 492.512 526.580, 494.018 527.511 C 495.211 528.249, 498.946 520.523, 498.978 517.250 C 499.013 513.664, 497.068 514.635, 494.973 519.250 M 510.632 519.750 C 506.563 527.633, 498.681 559.373, 496.990 574.686 C 495.915 584.421, 495.969 586.762, 497.415 593.261 C 498.333 597.388, 499.961 601.654, 501.073 602.848 C 503.526 605.481, 508.089 605.651, 512.137 603.260 C 521.996 597.436, 544.050 557.552, 549.606 535.500 C 550.438 532.200, 551.695 527.190, 552.400 524.367 L 553.683 519.235 550.591 520.509 C 548.891 521.211, 544.934 522.310, 541.798 522.953 C 537.548 523.824, 535.932 524.639, 535.452 526.152 C 534.977 527.647, 534.239 528.030, 532.654 527.605 C 531.469 527.287, 530.050 527.014, 529.500 526.998 C 528.950 526.982, 529.175 526.533, 530 526 C 531.163 525.249, 530.825 525.001, 528.500 524.897 L 525.500 524.763 528.500 524.069 L 531.500 523.375 528.140 522.584 C 526.292 522.149, 522.342 520.714, 519.362 519.396 C 512.580 516.397, 512.358 516.406, 510.632 519.750 M 667.100 524.250 C 667.155 526.038, 667.519 528.625, 667.910 530 C 668.604 532.441, 668.636 532.424, 669.285 529.250 C 669.895 526.269, 668.771 521, 667.525 521 C 667.236 521, 667.045 522.462, 667.100 524.250 M 395.610 537.351 C 390.145 551.662, 388.523 575.951, 392.027 591 C 393.116 595.675, 394.229 600.460, 394.501 601.632 C 395.200 604.644, 397.986 609.790, 397.994 608.083 C 397.997 607.304, 398.293 606.960, 398.651 607.318 C 399.834 608.501, 408.940 595.659, 413.412 586.500 C 418.920 575.218, 424.077 560.174, 424.317 554.686 L 424.500 550.500 418 548.897 C 411.060 547.185, 403.812 541.876, 400.302 535.933 C 399.349 534.320, 398.277 533, 397.920 533 C 397.564 533, 396.524 534.958, 395.610 537.351 M 434.655 538.750 C 434.080 539.683, 430.474 555.092, 429.565 560.500 C 429.196 562.700, 428.662 565.288, 428.379 566.250 C 427.973 567.632, 428.474 568, 430.762 568 C 433.246 568, 433.967 567.324, 435.829 563.250 C 439.171 555.938, 442.741 537.925, 440.381 540.286 C 440.040 540.626, 439.108 540.251, 438.310 539.452 C 436.711 537.854, 435.367 537.596, 434.655 538.750 M 880 550.465 C 880 551.878, 880.825 553.371, 881.934 553.965 C 884.637 555.411, 886 555.255, 886 553.500 C 886 552.675, 885.377 552, 884.617 552 C 883.856 552, 882.998 551.100, 882.710 550 C 881.971 547.173, 880 547.511, 880 550.465 M 845.494 563.991 C 846.355 565.384, 854.088 566.312, 855.240 565.160 C 855.971 564.429, 855.678 564.271, 854.274 564.639 C 853.166 564.928, 850.621 564.713, 848.618 564.160 C 846.616 563.607, 845.210 563.531, 845.494 563.991 M 632.175 579.590 C 630.581 580.707, 630.200 581.536, 630.897 582.376 C 631.607 583.231, 631.356 583.571, 630.018 583.571 C 628.989 583.571, 628.362 583.223, 628.625 582.797 C 628.889 582.371, 628.406 582.291, 627.552 582.618 C 625.846 583.273, 625.401 586, 627 586 C 627.550 586, 628 586.900, 628 588 C 628 590.213, 629.547 590.710, 630.338 588.750 C 630.615 588.063, 630.878 588.602, 630.921 589.950 C 631.046 593.828, 632.748 591.034, 633.174 586.250 C 633.454 583.110, 633.190 582, 632.166 582 C 631.313 582, 631.688 581.243, 633.139 580.033 C 635.984 577.663, 635.345 577.369, 632.175 579.590 M 621.180 587.284 C 619.780 588.970, 621.334 591.508, 623.138 590.481 C 624.268 589.839, 624.275 589.945, 623.183 591.103 C 622.060 592.293, 621.662 592.225, 620.492 590.640 C 619.157 588.832, 619.039 588.836, 616.309 590.786 C 612.704 593.360, 607.435 599.254, 607.782 600.324 C 607.929 600.778, 607.642 600.897, 607.143 600.588 C 605.848 599.788, 589.888 616.810, 587.500 621.539 C 586.400 623.718, 585.177 625.645, 584.782 625.823 C 584.387 626, 582.630 628.651, 580.878 631.712 C 578.362 636.111, 577.920 637.643, 578.775 639.011 C 579.557 640.263, 579.544 641.056, 578.728 641.872 C 577.891 642.709, 577.911 643.311, 578.810 644.210 C 579.756 645.156, 579.527 645.693, 577.760 646.674 C 575.938 647.686, 575.839 647.936, 577.250 647.965 C 578.619 647.992, 579 648.871, 579 652 C 579 655.384, 578.680 656, 576.921 656 C 575.113 656, 574.923 655.574, 575.464 652.750 C 575.949 650.220, 575.852 649.875, 575.025 651.195 C 573.898 652.993, 574.332 659.114, 575.876 663.173 C 577.595 667.696, 581.882 671.674, 587.993 674.416 C 597.432 678.652, 603.280 676.665, 610.680 666.707 C 620.895 652.961, 628.105 630.450, 631.325 602.250 L 631.810 597.999 628.998 600.001 C 626.308 601.917, 626.208 601.922, 626.679 600.119 C 626.950 599.082, 626.447 596.831, 625.560 595.117 C 624.656 593.368, 624.399 592, 624.974 592 C 626.838 592, 626.040 589.823, 623.979 589.284 C 622.391 588.869, 622.203 588.460, 623.101 587.378 C 623.784 586.555, 623.842 586, 623.245 586 C 622.695 586, 621.766 586.578, 621.180 587.284 M 600.053 634.965 C 598.707 636.510, 597.276 638.613, 596.873 639.637 C 596.213 641.316, 596.134 641.327, 596.070 639.750 C 596.032 638.788, 595.599 638, 595.108 638 C 593.751 638, 592.752 643.152, 593.889 644.289 C 594.555 644.955, 594.701 644.573, 594.327 643.144 C 594.001 641.897, 594.234 641, 594.883 641 C 595.498 641, 596.037 641.563, 596.081 642.250 C 596.126 642.938, 596.707 642.273, 597.372 640.773 C 598.037 639.274, 599.884 636.686, 601.478 635.023 C 603.071 633.361, 603.952 632.035, 603.437 632.077 C 602.922 632.120, 601.399 633.419, 600.053 634.965 M 643.638 652.500 C 643.006 654.148, 643.415 654.264, 646.739 653.373 C 647.970 653.043, 648.731 652.374, 648.430 651.886 C 647.543 650.452, 644.263 650.872, 643.638 652.500 M 649 657 C 649 657.550, 648.325 658, 647.500 658 C 646.667 658, 646 658.889, 646 660 C 646 662.807, 647.456 662.488, 648.877 659.371 C 649.536 657.925, 650.319 656.986, 650.618 657.285 C 650.917 657.584, 650.639 658.806, 650 660 C 649.361 661.194, 649.063 662.396, 649.338 662.671 C 650.193 663.527, 652.184 658.923, 651.608 657.422 C 650.988 655.805, 649 655.483, 649 657 M 123.589 674.176 C 120.759 678.217, 121.539 683.484, 125.640 688.024 C 127.642 690.240, 129.506 691.827, 129.783 691.551 C 130.059 691.274, 129.775 690.434, 129.151 689.682 C 128.528 688.931, 128.351 687.948, 128.759 687.499 C 129.166 687.049, 128.797 686.931, 127.938 687.237 C 126.702 687.677, 126.465 687.192, 126.800 684.908 C 127.095 682.902, 126.734 681.835, 125.618 681.407 C 124.734 681.068, 124.265 680.380, 124.575 679.879 C 124.885 679.378, 125.554 679.224, 126.061 679.538 C 126.569 679.852, 127.775 679.641, 128.742 679.070 C 130.351 678.120, 130.309 677.978, 128.250 677.399 C 125.722 676.689, 125.194 675, 127.500 675 C 128.325 675, 129 674.476, 129 673.835 C 129 673.195, 131.025 674.724, 133.500 677.235 C 138.640 682.449, 139.670 681.789, 134.750 676.433 C 130.567 671.880, 125.863 670.929, 123.589 674.176 M 607.733 681.378 C 608.074 681.929, 607.618 682.067, 606.664 681.701 C 605.749 681.350, 605 681.499, 605 682.031 C 605 682.564, 605.436 683, 605.969 683 C 606.501 683, 606.678 683.675, 606.362 684.500 C 605.928 685.631, 606.536 686, 608.834 686 C 610.510 686, 612.104 685.641, 612.375 685.202 C 613.166 683.923, 611.332 681.677, 610.112 682.431 C 609.500 682.809, 609 682.679, 609 682.142 C 609 681.606, 609.563 680.950, 610.250 680.685 C 610.938 680.420, 610.519 680.251, 609.319 680.310 C 608.120 680.368, 607.406 680.848, 607.733 681.378 M 597.500 684 C 595.656 684.792, 595.696 684.870, 598 685 C 600.326 685.131, 600.361 685.205, 598.500 686.062 C 596.826 686.833, 596.794 686.944, 598.303 686.742 C 599.294 686.609, 600.055 686.050, 599.994 685.500 C 599.932 684.950, 600.921 684.207, 602.191 683.850 C 604.478 683.205, 604.477 683.199, 602 683.170 C 600.625 683.154, 598.600 683.527, 597.500 684 M 286.166 701.547 C 284.882 702.219, 283.307 703.326, 282.666 704.007 C 281.741 704.989, 281.970 705.003, 283.771 704.076 C 285.020 703.433, 286.552 703.223, 287.175 703.608 C 287.884 704.046, 288.032 703.861, 287.571 703.114 C 287.032 702.243, 287.598 702.104, 289.666 702.601 C 292.569 703.298, 292.595 703.203, 290 701.380 C 288.932 700.630, 287.827 700.678, 286.166 701.547 M 754.035 717.934 C 753.466 718.998, 753 720.536, 753 721.351 C 753 722.166, 752.438 723.068, 751.750 723.354 C 750.845 723.731, 750.993 724.274, 752.286 725.324 C 753.590 726.382, 755.041 726.555, 757.658 725.964 C 761.613 725.072, 762.732 724.247, 763.035 722 C 763.422 719.130, 762.984 718.499, 760.506 718.356 C 759.135 718.277, 758.262 718.615, 758.566 719.106 C 758.869 719.598, 758.386 720, 757.492 720 C 756.320 720, 756.043 719.440, 756.500 718 C 757.315 715.432, 755.402 715.381, 754.035 717.934 M 228.083 732.361 C 229.228 733.352, 237 733.920, 237 733.012 C 237 732.455, 234.900 732, 232.333 732 C 229.767 732, 227.854 732.162, 228.083 732.361 M 275.465 748.952 C 271.619 750.510, 270.692 752.671, 271.252 758.768 C 271.802 764.762, 274.729 772.286, 276.165 771.398 C 276.624 771.114, 277 769.394, 277 767.576 C 277 765.724, 277.930 763.087, 279.114 761.582 C 280.277 760.104, 280.890 758.581, 280.477 758.197 C 280.064 757.814, 279.525 758.063, 279.280 758.750 C 279.034 759.438, 277.953 760, 276.878 760 C 274.946 760, 274.947 759.974, 276.908 757.868 C 278 756.696, 280.043 755.610, 281.447 755.456 C 283.670 755.212, 284 755.557, 284 758.123 C 284 760.796, 284.193 760.967, 286.076 759.959 C 287.961 758.951, 288.052 759.033, 287.076 760.859 C 285.252 764.267, 285.720 764.994, 289.002 763.850 C 290.653 763.274, 292.267 762.378, 292.588 761.858 C 293.394 760.554, 291.109 758.002, 289.128 757.992 C 287.562 757.985, 285 753.891, 285 751.398 C 285 750.737, 283.583 749.702, 281.851 749.098 C 278.251 747.843, 278.203 747.842, 275.465 748.952 M 743.226 752.174 C 741.516 753.884, 741.696 759.121, 743.557 761.777 C 745.488 764.534, 748.404 764.614, 751.727 762 C 754.161 760.085, 754.179 760, 752.135 760 C 749.569 760, 749.281 758.312, 751.750 757.743 C 753.105 757.431, 752.822 757.032, 750.500 755.977 C 748.850 755.228, 746.814 753.790, 745.976 752.781 C 744.773 751.334, 744.194 751.206, 743.226 752.174 M 509.504 808.632 C 508.167 811.450, 507.563 811.954, 506.808 810.882 C 506.130 809.920, 505.984 810.589, 506.328 813.086 C 507.012 818.062, 505.535 820.268, 503.908 816.698 C 503.232 815.214, 502.301 814, 501.839 814 C 500.582 814, 500.828 810.572, 502.183 809.217 C 504.152 807.248, 502.161 806.545, 500.044 808.460 C 493.669 814.230, 496.423 825.927, 504.750 828.452 C 506.666 829.033, 507 828.763, 507 826.632 C 507 825.256, 507.439 822.976, 507.975 821.565 C 508.760 819.502, 509.620 819, 512.368 819 C 516.062 819, 517.601 817.099, 515.672 814.920 C 514.714 813.838, 514.794 813.817, 516.110 814.805 C 517.168 815.598, 517.554 816.954, 517.235 818.756 C 516.871 820.810, 517.042 821.227, 517.911 820.414 C 518.550 819.816, 519.339 817.685, 519.665 815.677 C 520.147 812.707, 519.758 811.371, 517.578 808.513 C 514.110 803.967, 511.701 804.002, 509.504 808.632 M 425.751 824.689 C 421.424 825.820, 422.883 834.041, 428.206 838.520 C 431.133 840.982, 435 841.860, 435 840.062 C 435 839.546, 436.238 839.208, 437.750 839.312 C 440.043 839.469, 440.551 839.057, 440.808 836.835 C 441.063 834.630, 440.061 833.291, 435.006 829.085 C 431.646 826.288, 428.582 824.052, 428.198 824.116 C 427.814 824.180, 426.713 824.438, 425.751 824.689 M 582.388 835.980 C 576.904 838.196, 574.343 846.268, 577.161 852.453 C 578.311 854.977, 582.292 856.153, 581.552 853.750 C 581.340 853.063, 580.891 851.150, 580.553 849.500 C 580.101 847.290, 580.207 846.895, 580.954 848 C 581.759 849.190, 581.973 848.931, 581.985 846.750 C 581.993 845.237, 582.480 844, 583.067 844 C 583.664 844, 583.867 844.845, 583.526 845.917 C 583.034 847.468, 583.306 847.733, 584.948 847.303 C 586.064 847.011, 586.704 846.331, 586.371 845.791 C 586.037 845.251, 586.308 843.792, 586.973 842.550 C 587.982 840.666, 588.708 840.402, 591.341 840.961 C 594.067 841.540, 594.471 842.025, 594.288 844.493 C 594.105 846.955, 594.270 847.155, 595.472 845.927 C 598.089 843.253, 598.360 839.360, 596.087 837.087 C 593.860 834.860, 586.611 834.274, 582.388 835.980" stroke="none" fill="#605755" fill-rule="evenodd"/><path d="M 0 512.001 L 0 1024.002 512.250 1023.751 L 1024.500 1023.500 1024.751 511.750 L 1025.002 0 512.501 0 L 0 0 0 512.001 M 0.496 512.500 C 0.496 794.100, 0.610 909.151, 0.750 768.168 C 0.890 627.186, 0.890 396.786, 0.750 256.168 C 0.610 115.551, 0.496 230.900, 0.496 512.500 M 439.187 170.274 C 437.810 171.934, 436.783 180.252, 438.052 179.468 C 438.574 179.146, 439 178.264, 439 177.508 C 439 176.220, 442.597 174.365, 444.250 174.802 C 444.663 174.911, 445 173.923, 445 172.607 C 445 169.320, 441.234 167.808, 439.187 170.274 M 424.608 177.579 C 422.928 181.958, 427.667 187.111, 433.200 186.921 C 434.465 186.878, 434.938 186.615, 434.250 186.338 C 433.563 186.060, 433 184.987, 433 183.952 C 433 182.917, 432.130 181.605, 431.068 181.036 C 430.005 180.467, 428.850 179.102, 428.500 178.001 C 427.742 175.612, 425.458 175.364, 424.608 177.579 M 588.726 186.916 C 587.026 188.638, 587.239 192, 589.048 192 C 590.504 192, 591.064 190.190, 589.756 189.710 C 588.756 189.344, 588.763 188.971, 589.792 187.883 C 590.884 186.728, 591.214 186.728, 591.930 187.886 C 592.395 188.640, 593.277 188.947, 593.888 188.569 C 594.508 188.186, 595 188.521, 595 189.324 C 595 190.118, 595.900 191.002, 597 191.290 C 599.328 191.899, 599.735 190.219, 597.470 189.350 C 596.505 188.980, 596.161 188.069, 596.538 186.882 C 597.193 184.816, 595.475 184.237, 594.662 186.250 C 594.259 187.250, 594.142 187.250, 594.079 186.250 C 593.964 184.433, 590.787 184.828, 588.726 186.916 M 598.943 193.944 C 600.111 194.683, 600.163 195.346, 599.215 197.428 C 598.511 198.974, 598.433 200, 599.021 200 C 599.560 200, 600 199.325, 600 198.500 C 600 197.675, 600.408 197, 600.906 197 C 601.405 197, 601.577 196.100, 601.290 195 C 601.002 193.900, 600.032 193.007, 599.133 193.015 C 597.760 193.028, 597.730 193.176, 598.943 193.944 M 235 283.149 C 235 283.846, 233.334 286.122, 231.297 288.208 C 227.600 291.994, 227.598 292, 230.175 292 C 231.594 292, 233.279 291.369, 233.920 290.597 C 235.683 288.472, 237.002 283.119, 235.926 282.454 C 235.417 282.140, 235 282.452, 235 283.149 M 315.500 317.458 C 298.338 320.160, 274.697 328.110, 256.203 337.398 C 251.097 339.962, 247.186 342.492, 247.512 343.019 C 247.855 343.575, 247.348 343.701, 246.302 343.319 C 244.590 342.694, 244.592 342.766, 246.340 344.759 C 247.582 346.175, 247.954 347.571, 247.483 349.054 C 246.966 350.683, 247.113 351.048, 248.050 350.469 C 248.978 349.896, 249.159 350.284, 248.730 351.923 C 248.285 353.627, 248.501 354.022, 249.638 353.585 C 250.760 353.155, 250.974 353.508, 250.498 355.006 C 250.042 356.444, 250.322 357, 251.504 357 C 252.868 357, 252.921 357.230, 251.821 358.367 C 251.095 359.119, 248.079 362.293, 245.119 365.420 C 242.160 368.547, 237.279 372.679, 234.272 374.603 C 231.265 376.526, 227.616 379.202, 226.163 380.550 C 222.961 383.518, 222.371 383.568, 220.768 381 C 220.081 379.900, 219.052 379, 218.482 379 C 217.308 379, 214 375.415, 214 374.144 C 214 373.685, 213.072 372.470, 211.938 371.444 C 210.805 370.418, 210.079 368.807, 210.325 367.864 C 210.645 366.640, 210.330 366.320, 209.223 366.745 C 208.203 367.136, 207.919 366.939, 208.395 366.170 C 209.895 363.743, 206.959 365.179, 199.355 370.590 C 180.544 383.978, 171.625 396.268, 169.534 411.684 C 167.205 428.853, 181.412 451.332, 196.316 454.058 C 200.528 454.828, 205 453.796, 205 452.054 C 205 451.506, 203.601 449.073, 201.890 446.646 C 199.081 442.661, 198.846 441.764, 199.463 437.367 C 203.213 410.624, 258.284 358.305, 309.809 332.535 C 326.872 324, 341.340 320.581, 349 323.271 C 353.544 324.867, 353.868 327.354, 350.415 334.167 C 344.064 346.701, 334.515 358.976, 313.982 381 C 308.598 386.775, 303.812 391.935, 303.347 392.467 C 302.363 393.590, 305.379 391.396, 308.797 388.501 C 310.095 387.402, 313.035 385.739, 315.329 384.807 C 317.623 383.875, 318.862 383.087, 318.083 383.056 C 317.304 383.025, 316.956 382.711, 317.309 382.357 C 317.663 382.004, 318.560 382.220, 319.304 382.838 C 320.048 383.455, 321.542 384.095, 322.623 384.260 C 326.883 384.910, 331.557 388.650, 332.679 392.305 C 333.682 395.573, 333.521 396.362, 331.070 400.218 C 328.243 404.662, 315.395 417.208, 308.600 422.159 C 304.033 425.486, 301.441 425.691, 298 423 C 296.625 421.924, 294.986 421.034, 294.357 421.022 C 293.035 420.997, 292.125 419.174, 290.493 413.281 C 289.382 409.268, 289.473 408.877, 292.354 405.281 C 295.438 401.430, 286.885 409.307, 270.399 425.500 C 265.359 430.450, 259.720 435.881, 257.868 437.569 C 238.297 455.402, 183.267 516.114, 168.276 536.410 C 158.092 550.198, 155.886 554.168, 155.822 558.826 C 155.689 568.445, 160.288 574.327, 169.444 576.248 C 175.135 577.441, 175.482 577.381, 187.374 573.163 C 216.516 562.825, 223.446 560.587, 239.500 556.328 C 257.216 551.628, 315.143 538.809, 315.781 539.448 C 316.228 539.895, 304.307 555.239, 293.988 567.500 C 289.822 572.450, 281.083 583.025, 274.568 591 C 268.053 598.975, 262.023 606.307, 261.167 607.293 C 259.750 608.928, 259.762 609.029, 261.306 608.436 C 262.238 608.079, 263 607.384, 263 606.893 C 263 606.402, 263.825 606, 264.833 606 C 265.842 606, 266.998 605.669, 267.402 605.264 C 268.710 603.957, 274.424 604.169, 277.250 605.630 C 280.793 607.461, 280.732 609.815, 277 615.345 C 275.350 617.790, 274 620.105, 274 620.490 C 274 622.297, 262.329 633.066, 259.280 634.072 C 256.204 635.088, 255.587 634.961, 253.343 632.853 C 251.349 630.980, 250.911 629.735, 251.195 626.750 C 251.392 624.688, 251.152 623, 250.661 623 C 250.171 623, 250.562 621.763, 251.529 620.250 L 253.288 617.500 250.719 619.854 C 246.930 623.326, 217.910 659.162, 210.615 669.378 C 198.256 686.686, 195.465 696.104, 200.036 705.079 C 203.296 711.477, 206.379 715.220, 211.227 718.661 C 214.843 721.228, 216.539 721.729, 222.258 721.917 C 233.849 722.297, 252.049 717.446, 267.655 709.817 C 268.840 709.238, 270.329 709.086, 270.965 709.478 C 272.309 710.309, 278 708.187, 278 706.856 C 278 706.360, 276.889 706.682, 275.532 707.571 C 274.175 708.460, 272.487 708.974, 271.782 708.713 C 270.252 708.147, 275.701 705.694, 278.250 705.802 C 279.212 705.842, 280.004 705.341, 280.008 704.688 C 280.013 704.035, 281.841 702.509, 284.071 701.299 C 287.276 699.559, 288.666 699.303, 290.702 700.077 C 292.118 700.615, 293.515 700.818, 293.805 700.528 C 294.096 700.238, 294.016 700, 293.627 700 C 293.239 700, 293.501 699.372, 294.211 698.605 C 294.920 697.838, 295.837 697.414, 296.248 697.663 C 297.395 698.357, 301.089 695.433, 300.244 694.500 C 299.835 694.049, 300.010 693.971, 300.633 694.326 C 301.256 694.682, 304.856 693.360, 308.633 691.387 C 312.410 689.415, 316.241 687.655, 317.148 687.477 C 318.754 687.162, 327.002 682.308, 328 681.091 C 328.275 680.755, 330.243 679.585, 332.373 678.490 C 334.503 677.396, 337.586 675.264, 339.225 673.754 C 340.863 672.243, 342.568 671.233, 343.014 671.509 C 343.460 671.784, 343.706 670.922, 343.560 669.593 C 343.391 668.055, 343.728 667.342, 344.487 667.633 C 345.143 667.885, 346.257 667.396, 346.962 666.546 C 347.997 665.299, 348 664.705, 346.981 663.477 C 345.924 662.204, 345.986 662.057, 347.359 662.584 C 348.261 662.931, 349 662.989, 349 662.714 C 349 661.242, 345.712 661.282, 344.184 662.773 C 343.210 663.723, 340.183 666.196, 337.457 668.268 C 328.362 675.183, 326.974 676.489, 327.437 677.698 C 327.705 678.395, 327.323 678.677, 326.527 678.372 C 324.814 677.715, 321.127 679.577, 318.500 682.426 C 317.400 683.618, 316.893 684.011, 317.372 683.297 C 318.571 681.515, 317.589 681.671, 314.048 683.824 C 312.031 685.051, 311.379 685.979, 312.058 686.658 C 312.736 687.336, 312.579 687.667, 311.577 687.667 C 310.758 687.667, 310.320 687.292, 310.603 686.833 C 311.299 685.707, 310.271 685.785, 307.934 687.035 C 304.029 689.125, 306.192 687.185, 313.750 681.819 C 318.012 678.792, 328.700 671.200, 337.500 664.948 C 346.300 658.696, 354.254 653.579, 355.177 653.576 C 356.099 653.573, 356.652 653.246, 356.406 652.847 C 356.160 652.449, 358.105 650.521, 360.729 648.562 C 363.353 646.603, 366.400 644.286, 367.500 643.412 C 369.251 642.022, 386.801 629.165, 390.547 626.528 C 391.568 625.809, 392.785 626.514, 395.214 629.232 C 397.021 631.254, 402.769 636.101, 407.987 640.002 C 413.205 643.903, 417.840 647.749, 418.287 648.548 C 418.734 649.346, 419.644 650, 420.309 650 C 420.975 650, 422.108 650.944, 422.829 652.097 C 423.549 653.251, 424.380 653.953, 424.676 653.658 C 424.971 653.362, 426.170 654.012, 427.340 655.103 C 430.513 658.059, 446.271 667.223, 456.500 672.061 C 468.216 677.602, 469.310 678.075, 471.043 678.336 C 471.844 678.457, 472.950 678.837, 473.500 679.180 C 475.858 680.652, 487.262 682.188, 491.316 681.580 C 497.983 680.580, 500.288 677.554, 500.713 669.240 C 501.497 653.934, 501.995 655.576, 492 640.543 C 487.483 633.750, 485.616 633.591, 487.918 640.194 C 490.588 647.855, 488.671 650, 479.154 650 C 462.161 650, 432.096 639.878, 418.492 629.576 C 411.982 624.646, 407 620.145, 407 619.192 C 407 618.774, 409.517 615.972, 412.592 612.966 C 427.191 598.698, 439.914 579.528, 446.992 561.138 C 451.142 550.354, 451.323 550.086, 459.352 542.925 C 463.833 538.928, 471.699 531.347, 476.830 526.079 L 486.161 516.500 484.077 521.796 C 477.879 537.547, 474.358 572.611, 477.485 587.441 C 480.426 601.387, 483.266 605.366, 494.199 610.862 C 498.539 613.043, 499.288 613.130, 503.998 612 C 509.492 610.683, 518.766 604.387, 525.340 597.515 C 541.096 581.041, 558.221 546.903, 563.465 521.515 C 564.912 514.510, 565.628 513.036, 569.698 508.685 L 574.296 503.769 573.616 507.135 C 571.629 516.971, 570 527.687, 570 530.921 C 570 541.030, 576.724 554.919, 583.188 558.162 C 588.544 560.849, 592.592 561.872, 594.106 560.921 C 594.873 560.439, 596.259 560.282, 597.187 560.570 C 599.302 561.228, 602.953 559.041, 602.353 557.477 C 602.107 556.836, 604.253 552.529, 607.122 547.905 C 609.992 543.282, 622.181 519.960, 634.209 496.078 C 656.769 451.285, 656.998 450.955, 653.328 468.500 C 649.914 484.820, 640.835 537.119, 637.444 560 C 636.507 566.325, 635.305 572.048, 634.774 572.718 C 634.243 573.387, 630.139 576.039, 625.654 578.611 C 598.987 593.900, 577.332 611.725, 567.141 626.775 C 554.731 645.101, 554.362 664.867, 566.230 675.589 C 568.425 677.572, 571.692 679.809, 573.490 680.560 C 575.373 681.347, 578.939 684.699, 581.897 688.463 C 584.722 692.058, 587.701 695, 588.517 695 C 589.333 695, 590 695.367, 590 695.816 C 590 696.265, 595.063 696.500, 601.250 696.339 C 608.722 696.144, 611.996 696.369, 611 697.008 C 609.706 697.837, 609.730 697.971, 611.179 697.985 C 612.102 697.993, 613.532 697.325, 614.357 696.500 C 615.182 695.675, 616.324 695, 616.895 695 C 619.005 695, 624.818 691.675, 624.577 690.606 C 624.440 689.998, 624.517 689.837, 624.747 690.250 C 625.436 691.482, 626.346 691.130, 629.500 688.412 C 631.150 686.991, 633.175 685.424, 634 684.932 C 635.201 684.215, 635.241 683.866, 634.203 683.180 C 633.166 682.496, 633.221 682.062, 634.476 681.020 C 635.807 679.915, 635.950 679.966, 635.416 681.359 C 634.518 683.698, 636.224 683.388, 638.431 680.809 C 645.753 672.258, 656.216 656, 654.397 656 C 654.008 656, 654.479 655.128, 655.443 654.063 C 656.407 652.998, 656.900 651.648, 656.539 651.063 C 656.178 650.478, 656.304 650, 656.819 650 C 657.885 650, 661.577 640.261, 662.504 635 C 662.962 632.406, 662.851 631.888, 662.076 633 C 661.501 633.825, 661.023 635.400, 661.014 636.500 C 660.995 638.957, 657.112 649.134, 657.047 646.899 C 657.021 646.019, 657.491 643.891, 658.090 642.170 C 659.428 638.333, 658.651 635.426, 657.243 639 C 656.473 640.956, 656.249 639.674, 656.216 633.113 C 656.189 627.696, 655.748 624.462, 654.971 623.982 C 654.239 623.530, 653.918 621.655, 654.152 619.203 C 654.364 616.984, 654.238 615.353, 653.873 615.578 C 653.136 616.034, 651.961 613.486, 652.070 611.668 C 652.109 611.026, 652.551 611.400, 653.053 612.500 C 653.836 614.217, 653.953 614.075, 653.877 611.500 C 653.828 609.850, 653.889 607.150, 654.012 605.500 L 654.237 602.500 655 605.500 L 655.763 608.500 655.782 605.500 C 655.792 603.850, 655.502 601.437, 655.138 600.138 C 654.564 598.094, 654.304 598.416, 653.205 602.522 C 652.507 605.133, 651.757 607.090, 651.538 606.872 C 650.947 606.280, 652.928 596.775, 654.074 594.709 C 654.621 593.724, 654.824 592.525, 654.527 592.043 C 653.999 591.189, 655.545 581.997, 656.720 579 C 657.044 578.175, 657.458 575.803, 657.640 573.728 C 657.822 571.654, 658.623 568.729, 659.420 567.228 C 661.643 563.043, 665.977 558.874, 667.311 559.639 C 667.965 560.014, 668.175 559.961, 667.778 559.522 C 666.856 558.501, 669.646 555.189, 683.381 541 C 701.322 522.466, 717.118 503.011, 732.754 480.188 C 736.640 474.516, 740.152 469.791, 740.558 469.688 C 740.965 469.585, 741.223 473.325, 741.133 478 C 740.824 494.033, 746.384 512.673, 754.095 521.456 C 762.635 531.182, 777.642 532.793, 786.025 524.883 C 790.281 520.866, 799.726 505.851, 803.917 496.437 L 807.892 487.510 808.229 502.005 C 808.503 513.794, 809.052 518.274, 811.169 526 C 815.992 543.599, 821.377 551.614, 832.768 558.147 C 836.133 560.076, 838.843 562.580, 840.268 565.076 C 842.702 569.338, 845.365 570.116, 847.714 567.250 C 848.503 566.288, 848.863 566.063, 848.515 566.750 C 848.086 567.597, 848.787 568.023, 850.691 568.070 C 853.113 568.131, 853.224 568.250, 851.500 568.932 C 850.400 569.367, 848.938 569.512, 848.250 569.255 C 847.563 568.997, 847 569.270, 847 569.862 C 847 570.469, 846.239 570.652, 845.250 570.281 C 843.743 569.717, 843.683 569.851, 844.818 571.247 C 846.044 572.756, 853.309 577, 854.666 577 C 855.644 577, 850.665 573.401, 848.687 572.677 C 847.689 572.313, 847.154 571.560, 847.497 571.004 C 847.906 570.344, 848.746 570.329, 849.929 570.962 C 850.924 571.494, 852.058 571.609, 852.450 571.216 C 852.843 570.824, 853.802 571.376, 854.582 572.443 C 855.362 573.509, 856 573.846, 856 573.191 C 856 572.536, 856.450 572, 857 572 C 857.550 572, 858 572.900, 858 574 C 858 575.580, 858.667 576, 861.171 576 C 862.915 576, 865.185 575.238, 866.214 574.306 C 867.973 572.714, 868.047 572.714, 867.436 574.306 C 866.629 576.408, 867.065 576.414, 871.379 574.356 C 873.743 573.229, 874.667 572.207, 874.319 571.106 C 873.896 569.769, 873.982 569.740, 874.829 570.936 C 875.967 572.540, 875.546 572.774, 884.251 565.683 C 886.864 563.554, 888.707 561.335, 888.346 560.752 C 887.986 560.168, 888.137 559.967, 888.683 560.304 C 890.162 561.218, 897.391 553.441, 896.460 551.936 C 895.967 551.137, 896.100 550.944, 896.833 551.397 C 898.894 552.671, 911.716 530.968, 910.277 528.640 C 909.955 528.118, 910.160 527.981, 910.733 528.335 C 911.868 529.036, 915.833 519.185, 918.594 508.805 C 923.366 490.867, 920.078 478.876, 908.234 471.032 C 903.850 468.128, 899.762 466.740, 903.117 469.295 C 904.479 470.332, 904.518 470.726, 903.367 471.802 C 902.248 472.847, 902 472.782, 902 471.439 C 902 469.541, 895.786 463, 893.983 463 C 893.176 463, 893.008 463.756, 893.485 465.250 C 893.880 466.488, 894.560 469.975, 894.996 473 C 896.527 483.623, 890.596 505.247, 881.145 523.500 C 876.622 532.235, 864.329 548.706, 858.802 553.438 C 854.093 557.468, 851.726 557.871, 849.312 555.051 C 848.394 553.979, 847.204 553.374, 846.667 553.706 C 846.112 554.049, 846.012 553.790, 846.435 553.106 C 847.008 552.179, 847.544 552.201, 848.776 553.201 C 850.131 554.302, 850.282 554.253, 849.767 552.877 C 849.433 551.984, 848.838 546.022, 848.444 539.627 C 848.050 533.232, 847.339 528, 846.864 528 C 846.389 528, 846 524.400, 846 520 C 846 515.333, 845.583 512, 845 512 C 844.450 512, 844 511.148, 844 510.107 C 844 507.768, 841.226 506.568, 839.373 508.105 C 838.266 509.024, 837.972 508.688, 837.855 506.372 C 837.776 504.793, 837.347 508.884, 836.904 515.465 C 836.460 522.046, 836.235 527.569, 836.405 527.738 C 836.575 527.908, 837.493 527.748, 838.446 527.382 C 839.753 526.881, 840.011 526.076, 839.494 524.109 C 839.117 522.674, 838.584 519.362, 838.308 516.750 L 837.807 512 840.903 512 L 844 512 844 519.869 L 844 527.738 840.344 528.332 C 838.333 528.658, 836.302 528.686, 835.830 528.395 C 835.359 528.104, 835.243 523.058, 835.573 517.183 C 835.903 511.307, 835.741 504.700, 835.212 502.500 C 834.457 499.357, 834.348 500.535, 834.705 508 C 834.956 513.239, 834.784 516.976, 834.321 516.332 C 833.860 515.690, 833.613 510.965, 833.771 505.832 C 833.929 500.699, 834.086 494.925, 834.120 493 C 834.174 489.887, 834.260 489.777, 834.902 492 L 835.623 494.500 836.911 492.129 C 837.620 490.825, 837.753 490.035, 837.206 490.372 C 835.431 491.470, 834.835 485.755, 836.026 479.051 C 838.313 466.175, 840.289 458.474, 841.731 456.813 C 842.537 455.885, 842.912 454.666, 842.564 454.104 C 841.771 452.821, 845.129 439.961, 846.100 440.562 C 846.492 440.804, 846.560 440.032, 846.249 438.845 C 845.865 437.377, 846.051 436.914, 846.831 437.396 C 847.532 437.829, 847.780 437.589, 847.468 436.778 C 847.189 436.049, 847.661 433.213, 848.519 430.476 C 855.869 407.025, 858 398.980, 858 394.682 C 858 390.962, 857.673 389.912, 856.638 390.309 C 855.889 390.596, 853.302 389.521, 850.888 387.919 C 845.437 384.302, 840.951 383.398, 835.920 384.906 C 831.540 386.218, 829.841 388.537, 830.656 392.088 C 831.207 394.487, 831.198 394.486, 828.855 391.773 C 825.715 388.136, 816.770 384.210, 809.991 383.494 C 798.987 382.331, 782.381 390.423, 771.365 402.317 C 761.194 413.297, 753.339 426.743, 747.119 443.820 C 744.085 452.150, 738.081 462.937, 728.652 477 C 714.542 498.044, 681 539.224, 681 535.503 C 681 535.038, 681.563 533.925, 682.250 533.030 C 682.938 532.134, 682.481 532.469, 681.236 533.773 C 679.990 535.078, 679.257 536.607, 679.606 537.172 C 680.008 537.821, 679.487 537.796, 678.193 537.103 C 677.067 536.500, 675.432 536.281, 674.561 536.615 C 673.405 537.059, 673.144 536.788, 673.596 535.611 C 673.936 534.725, 673.746 534, 673.173 534 C 672.601 534, 671.937 532.987, 671.698 531.750 C 671.458 530.513, 671.402 530.973, 671.572 532.772 C 671.755 534.711, 671.485 535.799, 670.908 535.443 C 670.372 535.112, 669.998 532.289, 670.076 529.171 C 670.216 523.562, 668.355 512.877, 668.115 517.917 C 668.052 519.246, 667.774 520.107, 667.497 519.830 C 666.624 518.957, 668.222 510.019, 669.149 510.592 C 669.635 510.892, 669.820 511.482, 669.560 511.902 C 669.301 512.323, 669.736 512.667, 670.528 512.667 C 671.412 512.667, 671.644 512.248, 671.129 511.583 C 669.744 509.797, 669.113 506, 670.201 506 C 670.758 506, 670.993 505.425, 670.724 504.722 C 670.097 503.089, 671.825 491.931, 672.920 490.547 C 673.375 489.971, 673.998 486.531, 674.303 482.902 C 674.609 479.273, 675.344 473.648, 675.937 470.402 C 676.529 467.156, 678.164 458.200, 679.568 450.500 C 680.973 442.800, 683.670 430.482, 685.561 423.127 C 687.452 415.772, 689 408.718, 689 407.450 C 689 404.053, 684.545 401, 679.588 401 C 674.559 401, 671.703 402.843, 669.969 407.210 C 656.683 440.654, 634.279 488.451, 618.035 518 C 614.559 524.325, 610.362 531.975, 608.709 535 C 600.659 549.735, 596.501 553.935, 593.220 550.643 C 588.915 546.322, 594.021 517.261, 606.686 474 C 613.187 451.792, 613.261 451.402, 611.601 448.222 C 610.818 446.725, 608.797 444.186, 607.108 442.580 C 604.360 439.968, 603.324 439.652, 597.268 439.580 L 590.500 439.500 590.425 445.500 C 590.331 453.020, 587.547 462.722, 584.542 466 C 583.282 467.375, 581.254 471.650, 580.036 475.500 C 577.357 483.966, 571.928 495.580, 569.051 499 L 566.949 501.500 567.709 498.500 C 568.128 496.850, 568.460 487.175, 568.448 477 C 568.424 457.435, 567.186 449.205, 563.044 441.086 C 560.358 435.822, 553.779 430.413, 547.609 428.399 C 544.799 427.481, 542.342 426.596, 542.150 426.431 C 541.957 426.267, 543.209 424.378, 544.932 422.235 C 558.018 405.950, 551.759 382.510, 533.409 379.082 C 521.607 376.877, 506.683 382.183, 496.726 392.123 C 490.006 398.832, 487.053 404.628, 487.022 411.167 C 486.955 425.423, 500.152 436.115, 518.134 436.375 C 525.039 436.475, 526.423 436.146, 532.634 432.930 C 538.564 429.859, 539.985 429.492, 543.060 430.241 C 546.929 431.184, 555.523 438.344, 554.593 439.850 C 554.277 440.361, 552.777 441.085, 551.259 441.459 C 546.313 442.679, 532.135 450.987, 524.454 457.166 C 516.818 463.309, 511.367 469.169, 506.311 476.671 C 502.164 482.824, 498.878 484.940, 489.207 487.681 C 479.635 490.395, 461.754 491.728, 454.091 490.298 C 449.882 489.513, 449.602 489.240, 447.914 484.272 C 440.618 462.808, 426.551 449.248, 410.511 448.219 C 402.170 447.684, 397.838 449.407, 391.799 455.665 C 385.494 462.199, 383.500 467.926, 383.500 479.500 C 383.500 488.385, 383.807 490.124, 386.250 495.100 C 387.762 498.179, 389 501.029, 389 501.431 C 389 501.834, 387.476 504.039, 385.614 506.332 C 380.464 512.672, 374.080 526.279, 371.255 536.936 C 367.750 550.156, 367.550 573.003, 370.822 586.301 C 373.512 597.239, 378.270 607.566, 384.451 615.885 L 389.194 622.270 386.347 624.638 C 368.315 639.636, 332.271 664.243, 307.093 678.744 C 287.339 690.121, 260.525 703.200, 249.154 707.005 C 239.010 710.400, 225.359 713.340, 223.906 712.442 C 222.106 711.330, 223.063 705.369, 226.060 699.036 C 228.477 693.925, 229.334 692.879, 230.153 694.036 C 230.982 695.208, 231.066 695.124, 230.575 693.618 C 229.877 691.478, 232.360 688.004, 250 666.446 C 256.325 658.717, 262.935 650.616, 264.689 648.446 C 272.995 638.171, 285.021 623.869, 286.086 623 C 286.948 622.298, 292.401 615.175, 309.821 592 C 315.402 584.575, 322.673 575.125, 325.978 571 C 329.284 566.875, 334.069 560.482, 336.612 556.793 C 344.040 546.019, 343.785 538.166, 335.802 531.843 C 332.048 528.870, 331.544 528.748, 325.180 529.285 C 316.528 530.016, 240.823 549.120, 213.500 557.468 C 194.656 563.226, 179.019 567.352, 178.398 566.731 C 177.616 565.949, 183.314 557.472, 191.325 547.500 C 203.429 532.434, 241.518 495.170, 267.041 473.425 C 331.170 418.786, 354.331 394.924, 365.078 372.420 C 369.951 362.217, 372.006 354.359, 371.978 346.040 C 371.949 337.363, 369.782 332.939, 361.860 325.381 C 356.038 319.826, 354.784 319.111, 348.275 317.631 C 339.922 315.731, 326.903 315.662, 315.500 317.458 M 528.438 384.918 C 518.533 387.352, 507.623 397.046, 504.054 406.586 C 500.259 416.727, 502.045 425.118, 509 429.833 C 512.135 431.958, 513.292 432.153, 520.096 431.708 C 528.328 431.169, 531.968 429.723, 537.643 424.740 C 548.917 414.842, 550.178 393.589, 539.868 387.232 C 535.637 384.624, 532.347 383.958, 528.438 384.918 M 809.206 396.568 C 807.974 397.431, 807.269 398.626, 807.638 399.223 C 808.020 399.841, 807.848 400.024, 807.239 399.647 C 804.187 397.761, 788.046 419.503, 780.251 436 C 775.004 447.105, 770.913 459.781, 768.425 472.642 C 766.918 480.434, 766.413 499.514, 767.575 504.767 C 769.104 511.679, 770.125 513.805, 771.796 513.559 C 772.733 513.422, 773.500 512.827, 773.500 512.238 C 773.500 511.649, 773.837 510.829, 774.250 510.417 C 775.413 509.254, 775.134 511.880, 773.836 514.316 C 772.814 516.235, 772.860 516.345, 774.219 515.224 C 775.488 514.179, 775.868 514.214, 776.332 515.422 C 776.643 516.232, 778.284 517.613, 779.979 518.489 C 782.643 519.867, 783.253 519.890, 784.483 518.660 C 785.265 517.878, 785.589 516.887, 785.202 516.459 C 784.816 516.030, 785.047 515.994, 785.716 516.378 C 788.319 517.872, 798.539 499.887, 805.818 481 C 808.044 475.225, 813.291 458.350, 817.478 443.500 C 821.665 428.650, 825.978 413.840, 827.063 410.588 L 829.036 404.676 826.806 401.422 C 822.821 395.606, 814.038 393.184, 809.206 396.568 M 755.880 439.733 C 751.402 440.738, 749.255 453.869, 752.157 462.500 C 754.223 468.644, 756.963 468.403, 760.314 461.781 C 763.433 455.616, 763.857 448.609, 761.423 443.478 C 759.758 439.969, 758.528 439.138, 755.880 439.733 M 551.273 453.481 C 547.313 455.203, 537.390 464.878, 533.211 471.091 C 525.019 483.270, 520.705 497.772, 522.902 505.741 C 524.404 511.185, 528.379 515.302, 531.336 514.475 C 532.754 514.078, 533.061 514.176, 532.225 514.759 C 531.318 515.392, 531.946 515.955, 534.403 516.709 C 538.491 517.964, 544.511 517.018, 551.102 514.085 L 555.705 512.037 557.102 502.769 C 558.626 492.665, 558.987 464.350, 557.689 456.750 C 556.815 451.636, 556.218 451.332, 551.273 453.481 M 397.731 457.665 C 389.293 463.669, 385.441 480.181, 390.005 490.790 C 392.612 496.849, 394.390 497.378, 395.978 492.566 C 396.602 490.677, 398.951 487.471, 401.198 485.440 C 405.148 481.872, 405.481 481.766, 411.150 482.280 C 414.495 482.583, 418.576 483.732, 420.646 484.954 L 424.276 487.095 423.761 483.253 C 422.552 474.242, 414.003 458.234, 409.241 456.064 C 405.417 454.322, 401.704 454.838, 397.731 457.665 M 408.418 485.958 C 401.867 488.643, 398.297 499.022, 399.396 512.193 C 400.364 523.799, 402.566 529.417, 408.777 536.126 C 414.842 542.677, 424.594 548.274, 425.995 546.009 C 427.612 543.392, 428.336 515.836, 427.098 504 C 425.998 493.475, 425.667 492.304, 423.198 490.185 C 418.747 486.365, 412.077 484.458, 408.418 485.958 M 495 490.939 C 489.997 493.868, 470.349 497.196, 458.896 497.053 L 451.292 496.959 452.216 502.229 C 452.723 505.128, 453.220 514.812, 453.320 523.750 C 453.419 532.687, 453.756 540, 454.070 540 C 454.953 540, 473.794 522.952, 480.469 516.115 C 483.751 512.752, 486.944 510, 487.564 510 C 489.007 510, 492 506.714, 492 505.130 C 492 504.462, 493.350 501.029, 495 497.500 C 496.650 493.971, 498 490.840, 498 490.542 C 498 489.759, 496.728 489.927, 495 490.939 M 123.250 495.031 C 122.013 495.529, 121 496.161, 121 496.436 C 121 496.712, 121.681 496.676, 122.513 496.357 C 123.345 496.037, 124.695 496.332, 125.513 497.011 C 126.750 498.037, 127 497.888, 127 496.122 C 127 493.801, 126.600 493.684, 123.250 495.031 M 848.624 511.539 C 848.281 512.432, 848.066 515.264, 848.147 517.832 C 848.291 522.400, 848.309 522.372, 848.974 516.500 C 849.701 510.092, 849.620 508.943, 848.624 511.539 M 494.973 519.250 C 492.808 524.019, 492.512 526.580, 494.018 527.511 C 495.211 528.249, 498.946 520.523, 498.978 517.250 C 499.013 513.664, 497.068 514.635, 494.973 519.250 M 510.632 519.750 C 506.563 527.633, 498.681 559.373, 496.990 574.686 C 495.915 584.421, 495.969 586.762, 497.415 593.261 C 498.333 597.388, 499.961 601.654, 501.073 602.848 C 503.526 605.481, 508.089 605.651, 512.137 603.260 C 521.996 597.436, 544.050 557.552, 549.606 535.500 C 550.438 532.200, 551.695 527.190, 552.400 524.367 L 553.683 519.235 550.591 520.509 C 548.891 521.211, 544.934 522.310, 541.798 522.953 C 537.548 523.824, 535.932 524.639, 535.452 526.152 C 534.977 527.647, 534.239 528.030, 532.654 527.605 C 531.469 527.287, 530.050 527.014, 529.500 526.998 C 528.950 526.982, 529.175 526.533, 530 526 C 531.163 525.249, 530.825 525.001, 528.500 524.897 L 525.500 524.763 528.500 524.069 L 531.500 523.375 528.140 522.584 C 526.292 522.149, 522.342 520.714, 519.362 519.396 C 512.580 516.397, 512.358 516.406, 510.632 519.750 M 667.100 524.250 C 667.155 526.038, 667.519 528.625, 667.910 530 C 668.604 532.441, 668.636 532.424, 669.285 529.250 C 669.895 526.269, 668.771 521, 667.525 521 C 667.236 521, 667.045 522.462, 667.100 524.250 M 395.610 537.351 C 390.145 551.662, 388.523 575.951, 392.027 591 C 393.116 595.675, 394.229 600.460, 394.501 601.632 C 395.200 604.644, 397.986 609.790, 397.994 608.083 C 397.997 607.304, 398.293 606.960, 398.651 607.318 C 399.834 608.501, 408.940 595.659, 413.412 586.500 C 418.920 575.218, 424.077 560.174, 424.317 554.686 L 424.500 550.500 418 548.897 C 411.060 547.185, 403.812 541.876, 400.302 535.933 C 399.349 534.320, 398.277 533, 397.920 533 C 397.564 533, 396.524 534.958, 395.610 537.351 M 434.655 538.750 C 434.080 539.683, 430.474 555.092, 429.565 560.500 C 429.196 562.700, 428.662 565.288, 428.379 566.250 C 427.973 567.632, 428.474 568, 430.762 568 C 433.246 568, 433.967 567.324, 435.829 563.250 C 439.171 555.938, 442.741 537.925, 440.381 540.286 C 440.040 540.626, 439.108 540.251, 438.310 539.452 C 436.711 537.854, 435.367 537.596, 434.655 538.750 M 880 550.465 C 880 551.878, 880.825 553.371, 881.934 553.965 C 884.637 555.411, 886 555.255, 886 553.500 C 886 552.675, 885.377 552, 884.617 552 C 883.856 552, 882.998 551.100, 882.710 550 C 881.971 547.173, 880 547.511, 880 550.465 M 845.494 563.991 C 846.355 565.384, 854.088 566.312, 855.240 565.160 C 855.971 564.429, 855.678 564.271, 854.274 564.639 C 853.166 564.928, 850.621 564.713, 848.618 564.160 C 846.616 563.607, 845.210 563.531, 845.494 563.991 M 632.175 579.590 C 630.581 580.707, 630.200 581.536, 630.897 582.376 C 631.607 583.231, 631.356 583.571, 630.018 583.571 C 628.989 583.571, 628.362 583.223, 628.625 582.797 C 628.889 582.371, 628.406 582.291, 627.552 582.618 C 625.846 583.273, 625.401 586, 627 586 C 627.550 586, 628 586.900, 628 588 C 628 590.213, 629.547 590.710, 630.338 588.750 C 630.615 588.063, 630.878 588.602, 630.921 589.950 C 631.046 593.828, 632.748 591.034, 633.174 586.250 C 633.454 583.110, 633.190 582, 632.166 582 C 631.313 582, 631.688 581.243, 633.139 580.033 C 635.984 577.663, 635.345 577.369, 632.175 579.590 M 621.180 587.284 C 619.780 588.970, 621.334 591.508, 623.138 590.481 C 624.268 589.839, 624.275 589.945, 623.183 591.103 C 622.060 592.293, 621.662 592.225, 620.492 590.640 C 619.157 588.832, 619.039 588.836, 616.309 590.786 C 612.704 593.360, 607.435 599.254, 607.782 600.324 C 607.929 600.778, 607.642 600.897, 607.143 600.588 C 605.848 599.788, 589.888 616.810, 587.500 621.539 C 586.400 623.718, 585.177 625.645, 584.782 625.823 C 584.387 626, 582.630 628.651, 580.878 631.712 C 578.362 636.111, 577.920 637.643, 578.775 639.011 C 579.557 640.263, 579.544 641.056, 578.728 641.872 C 577.891 642.709, 577.911 643.311, 578.810 644.210 C 579.756 645.156, 579.527 645.693, 577.760 646.674 C 575.938 647.686, 575.839 647.936, 577.250 647.965 C 578.619 647.992, 579 648.871, 579 652 C 579 655.384, 578.680 656, 576.921 656 C 575.113 656, 574.923 655.574, 575.464 652.750 C 575.949 650.220, 575.852 649.875, 575.025 651.195 C 573.898 652.993, 574.332 659.114, 575.876 663.173 C 577.595 667.696, 581.882 671.674, 587.993 674.416 C 597.432 678.652, 603.280 676.665, 610.680 666.707 C 620.895 652.961, 628.105 630.450, 631.325 602.250 L 631.810 597.999 628.998 600.001 C 626.308 601.917, 626.208 601.922, 626.679 600.119 C 626.950 599.082, 626.447 596.831, 625.560 595.117 C 624.656 593.368, 624.399 592, 624.974 592 C 626.838 592, 626.040 589.823, 623.979 589.284 C 622.391 588.869, 622.203 588.460, 623.101 587.378 C 623.784 586.555, 623.842 586, 623.245 586 C 622.695 586, 621.766 586.578, 621.180 587.284 M 600.053 634.965 C 598.707 636.510, 597.276 638.613, 596.873 639.637 C 596.213 641.316, 596.134 641.327, 596.070 639.750 C 596.032 638.788, 595.599 638, 595.108 638 C 593.751 638, 592.752 643.152, 593.889 644.289 C 594.555 644.955, 594.701 644.573, 594.327 643.144 C 594.001 641.897, 594.234 641, 594.883 641 C 595.498 641, 596.037 641.563, 596.081 642.250 C 596.126 642.938, 596.707 642.273, 597.372 640.773 C 598.037 639.274, 599.884 636.686, 601.478 635.023 C 603.071 633.361, 603.952 632.035, 603.437 632.077 C 602.922 632.120, 601.399 633.419, 600.053 634.965 M 643.638 652.500 C 643.006 654.148, 643.415 654.264, 646.739 653.373 C 647.970 653.043, 648.731 652.374, 648.430 651.886 C 647.543 650.452, 644.263 650.872, 643.638 652.500 M 649 657 C 649 657.550, 648.325 658, 647.500 658 C 646.667 658, 646 658.889, 646 660 C 646 662.807, 647.456 662.488, 648.877 659.371 C 649.536 657.925, 650.319 656.986, 650.618 657.285 C 650.917 657.584, 650.639 658.806, 650 660 C 649.361 661.194, 649.063 662.396, 649.338 662.671 C 650.193 663.527, 652.184 658.923, 651.608 657.422 C 650.988 655.805, 649 655.483, 649 657 M 123.589 674.176 C 120.759 678.217, 121.539 683.484, 125.640 688.024 C 127.642 690.240, 129.506 691.827, 129.783 691.551 C 130.059 691.274, 129.775 690.434, 129.151 689.682 C 128.528 688.931, 128.351 687.948, 128.759 687.499 C 129.166 687.049, 128.797 686.931, 127.938 687.237 C 126.702 687.677, 126.465 687.192, 126.800 684.908 C 127.095 682.902, 126.734 681.835, 125.618 681.407 C 124.734 681.068, 124.265 680.380, 124.575 679.879 C 124.885 679.378, 125.554 679.224, 126.061 679.538 C 126.569 679.852, 127.775 679.641, 128.742 679.070 C 130.351 678.120, 130.309 677.978, 128.250 677.399 C 125.722 676.689, 125.194 675, 127.500 675 C 128.325 675, 129 674.476, 129 673.835 C 129 673.195, 131.025 674.724, 133.500 677.235 C 138.640 682.449, 139.670 681.789, 134.750 676.433 C 130.567 671.880, 125.863 670.929, 123.589 674.176 M 607.733 681.378 C 608.074 681.929, 607.618 682.067, 606.664 681.701 C 605.749 681.350, 605 681.499, 605 682.031 C 605 682.564, 605.436 683, 605.969 683 C 606.501 683, 606.678 683.675, 606.362 684.500 C 605.928 685.631, 606.536 686, 608.834 686 C 610.510 686, 612.104 685.641, 612.375 685.202 C 613.166 683.923, 611.332 681.677, 610.112 682.431 C 609.500 682.809, 609 682.679, 609 682.142 C 609 681.606, 609.563 680.950, 610.250 680.685 C 610.938 680.420, 610.519 680.251, 609.319 680.310 C 608.120 680.368, 607.406 680.848, 607.733 681.378 M 597.500 684 C 595.656 684.792, 595.696 684.870, 598 685 C 600.326 685.131, 600.361 685.205, 598.500 686.062 C 596.826 686.833, 596.794 686.944, 598.303 686.742 C 599.294 686.609, 600.055 686.050, 599.994 685.500 C 599.932 684.950, 600.921 684.207, 602.191 683.850 C 604.478 683.205, 604.477 683.199, 602 683.170 C 600.625 683.154, 598.600 683.527, 597.500 684 M 286.166 701.547 C 284.882 702.219, 283.307 703.326, 282.666 704.007 C 281.741 704.989, 281.970 705.003, 283.771 704.076 C 285.020 703.433, 286.552 703.223, 287.175 703.608 C 287.884 704.046, 288.032 703.861, 287.571 703.114 C 287.032 702.243, 287.598 702.104, 289.666 702.601 C 292.569 703.298, 292.595 703.203, 290 701.380 C 288.932 700.630, 287.827 700.678, 286.166 701.547 M 754.035 717.934 C 753.466 718.998, 753 720.536, 753 721.351 C 753 722.166, 752.438 723.068, 751.750 723.354 C 750.845 723.731, 750.993 724.274, 752.286 725.324 C 753.590 726.382, 755.041 726.555, 757.658 725.964 C 761.613 725.072, 762.732 724.247, 763.035 722 C 763.422 719.130, 762.984 718.499, 760.506 718.356 C 759.135 718.277, 758.262 718.615, 758.566 719.106 C 758.869 719.598, 758.386 720, 757.492 720 C 756.320 720, 756.043 719.440, 756.500 718 C 757.315 715.432, 755.402 715.381, 754.035 717.934 M 228.083 732.361 C 229.228 733.352, 237 733.920, 237 733.012 C 237 732.455, 234.900 732, 232.333 732 C 229.767 732, 227.854 732.162, 228.083 732.361 M 275.465 748.952 C 271.619 750.510, 270.692 752.671, 271.252 758.768 C 271.802 764.762, 274.729 772.286, 276.165 771.398 C 276.624 771.114, 277 769.394, 277 767.576 C 277 765.724, 277.930 763.087, 279.114 761.582 C 280.277 760.104, 280.890 758.581, 280.477 758.197 C 280.064 757.814, 279.525 758.063, 279.280 758.750 C 279.034 759.438, 277.953 760, 276.878 760 C 274.946 760, 274.947 759.974, 276.908 757.868 C 278 756.696, 280.043 755.610, 281.447 755.456 C 283.670 755.212, 284 755.557, 284 758.123 C 284 760.796, 284.193 760.967, 286.076 759.959 C 287.961 758.951, 288.052 759.033, 287.076 760.859 C 285.252 764.267, 285.720 764.994, 289.002 763.850 C 290.653 763.274, 292.267 762.378, 292.588 761.858 C 293.394 760.554, 291.109 758.002, 289.128 757.992 C 287.562 757.985, 285 753.891, 285 751.398 C 285 750.737, 283.583 749.702, 281.851 749.098 C 278.251 747.843, 278.203 747.842, 275.465 748.952 M 743.226 752.174 C 741.516 753.884, 741.696 759.121, 743.557 761.777 C 745.488 764.534, 748.404 764.614, 751.727 762 C 754.161 760.085, 754.179 760, 752.135 760 C 749.569 760, 749.281 758.312, 751.750 757.743 C 753.105 757.431, 752.822 757.032, 750.500 755.977 C 748.850 755.228, 746.814 753.790, 745.976 752.781 C 744.773 751.334, 744.194 751.206, 743.226 752.174 M 509.504 808.632 C 508.167 811.450, 507.563 811.954, 506.808 810.882 C 506.130 809.920, 505.984 810.589, 506.328 813.086 C 507.012 818.062, 505.535 820.268, 503.908 816.698 C 503.232 815.214, 502.301 814, 501.839 814 C 500.582 814, 500.828 810.572, 502.183 809.217 C 504.152 807.248, 502.161 806.545, 500.044 808.460 C 493.669 814.230, 496.423 825.927, 504.750 828.452 C 506.666 829.033, 507 828.763, 507 826.632 C 507 825.256, 507.439 822.976, 507.975 821.565 C 508.760 819.502, 509.620 819, 512.368 819 C 516.062 819, 517.601 817.099, 515.672 814.920 C 514.714 813.838, 514.794 813.817, 516.110 814.805 C 517.168 815.598, 517.554 816.954, 517.235 818.756 C 516.871 820.810, 517.042 821.227, 517.911 820.414 C 518.550 819.816, 519.339 817.685, 519.665 815.677 C 520.147 812.707, 519.758 811.371, 517.578 808.513 C 514.110 803.967, 511.701 804.002, 509.504 808.632 M 425.751 824.689 C 421.424 825.820, 422.883 834.041, 428.206 838.520 C 431.133 840.982, 435 841.860, 435 840.062 C 435 839.546, 436.238 839.208, 437.750 839.312 C 440.043 839.469, 440.551 839.057, 440.808 836.835 C 441.063 834.630, 440.061 833.291, 435.006 829.085 C 431.646 826.288, 428.582 824.052, 428.198 824.116 C 427.814 824.180, 426.713 824.438, 425.751 824.689 M 582.388 835.980 C 576.904 838.196, 574.343 846.268, 577.161 852.453 C 578.311 854.977, 582.292 856.153, 581.552 853.750 C 581.340 853.063, 580.891 851.150, 580.553 849.500 C 580.101 847.290, 580.207 846.895, 580.954 848 C 581.759 849.190, 581.973 848.931, 581.985 846.750 C 581.993 845.237, 582.480 844, 583.067 844 C 583.664 844, 583.867 844.845, 583.526 845.917 C 583.034 847.468, 583.306 847.733, 584.948 847.303 C 586.064 847.011, 586.704 846.331, 586.371 845.791 C 586.037 845.251, 586.308 843.792, 586.973 842.550 C 587.982 840.666, 588.708 840.402, 591.341 840.961 C 594.067 841.540, 594.471 842.025, 594.288 844.493 C 594.105 846.955, 594.270 847.155, 595.472 845.927 C 598.089 843.253, 598.360 839.360, 596.087 837.087 C 593.860 834.860, 586.611 834.274, 582.388 835.980" stroke="none" fill="#dfd5d3" fill-rule="evenodd"/></svg>